<svg width="197" height="253" viewBox="0 0 197 253" fill="none" xmlns="http://www.w3.org/2000/svg">
<path d="M45.9156 67.0054L18.8397 33.5072L40.0843 21.5977L55.3498 24.7552L70.8762 27.9667L86.4252 47.4868L45.9156 67.0054Z" fill="black" fill-opacity="0.1"/>
<path d="M18.8397 33.5072L45.9156 67.0054M18.8397 33.5072L40.0843 21.5977L55.3498 24.7552M18.8397 33.5072L36.8451 37.2315M45.9156 67.0054L86.4252 47.4868M45.9156 67.0054L41.3804 52.1185L36.8451 37.2315M86.4252 47.4868L70.8762 27.9667L55.3498 24.7552M86.4252 47.4868L67.637 43.6006M55.3498 24.7552L36.8451 37.2315M55.3498 24.7552L67.637 43.6006M36.8451 37.2315L52.2411 40.4161L67.637 43.6006" stroke="black" stroke-opacity="0.1" stroke-width="4"/>
<path d="M67.8449 43.0725L46.3709 67.0996" stroke="black" stroke-opacity="0.1" stroke-width="5"/>
<path d="M65.5392 96.1619C63.1181 107.847 50.3536 115.565 36.546 112.709C22.7384 109.853 14.0899 97.7061 16.511 86.0208C18.9321 74.3354 31.6966 66.6172 45.5042 69.4732C59.3118 72.3292 67.9603 84.4765 65.5392 96.1619Z" stroke="black" stroke-opacity="0.1" stroke-width="5"/>
<path d="M142.944 96.5641L155.726 149.916L182.146 143.597L169.364 90.245L158.514 81.3132L151.345 51.3897L140.834 53.9037L148.002 83.8272L142.944 96.5641Z" fill="black" fill-opacity="0.1"/>
<path d="M173.285 108.276L147.242 114.505L151.484 132.211L177.527 125.982L173.285 108.276Z" fill="black" fill-opacity="0.1"/>
<path d="M142.944 96.5641L155.726 149.916L182.146 143.597L169.364 90.245L158.514 81.3132L151.345 51.3897L140.834 53.9037L148.002 83.8272L142.944 96.5641Z" stroke="black" stroke-opacity="0.1" stroke-width="3"/>
<path d="M173.285 108.276L147.242 114.505L151.484 132.211L177.527 125.982L173.285 108.276Z" stroke="black" stroke-opacity="0.1" stroke-width="3"/>
<path d="M111.204 136.943C111.204 136.943 129.709 186.504 139.586 181.439C149.464 176.374 129.174 129.223 129.174 129.223" stroke="black" stroke-opacity="0.1" stroke-width="2"/>
<path d="M111.926 137.431L115.776 135.777L120.481 133.756L125.186 131.735L129.464 129.897" stroke="black" stroke-opacity="0.1" stroke-width="2"/>
<path d="M120.482 138.148C120.933 139.197 120.448 140.413 119.398 140.864C118.347 141.316 117.13 140.831 116.679 139.782C116.227 138.733 116.712 137.516 117.763 137.065C118.813 136.614 120.03 137.099 120.482 138.148Z" stroke="black" stroke-opacity="0.1"/>
<path d="M129.565 133.846L114.053 140.51C114.053 140.51 131.987 183.115 139.069 180.073C146.15 177.031 129.565 133.846 129.565 133.846Z" fill="black" fill-opacity="0.1" stroke="black" stroke-opacity="0.1"/>
<path d="M122.114 132.655C122.565 133.704 122.08 134.92 121.03 135.372C119.98 135.823 118.762 135.338 118.311 134.289C117.86 133.24 118.345 132.024 119.395 131.572C120.446 131.121 121.663 131.606 122.114 132.655Z" stroke="black" stroke-opacity="0.1"/>
<path d="M121.332 123.408C121.783 124.457 121.298 125.674 120.248 126.125C119.197 126.576 117.98 126.091 117.529 125.042C117.078 123.993 117.563 122.777 118.613 122.326C119.663 121.874 120.881 122.36 121.332 123.408Z" stroke="black" stroke-opacity="0.1"/>
<path d="M118.06 128.807C118.512 129.856 118.027 131.072 116.976 131.523C115.926 131.974 114.709 131.489 114.257 130.44C113.806 129.392 114.291 128.175 115.341 127.724C116.392 127.273 117.609 127.758 118.06 128.807Z" stroke="black" stroke-opacity="0.1"/>
<path d="M153.261 239.059L156.712 222.004L172.148 230.945L162.367 235.147L153.261 239.059Z" fill="black" fill-opacity="0.1"/>
<path d="M139.31 181.566L148.156 202.122L156.712 222.004M156.712 222.004L153.261 239.059L162.367 235.147L172.148 230.945L156.712 222.004Z" stroke="black" stroke-opacity="0.1" stroke-width="2"/>
<path d="M100.18 137.897C100.18 137.897 88.4768 189.486 78.0099 185.787C67.543 182.087 81.3374 132.648 81.3374 132.648" stroke="black" stroke-opacity="0.1" stroke-width="2"/>
<path d="M99.5292 138.477L95.4926 137.353L90.559 135.978L85.6254 134.604L81.1402 133.355" stroke="black" stroke-opacity="0.1" stroke-width="2"/>
<path d="M91.1464 140.331C90.8396 141.431 91.483 142.571 92.5844 142.878C93.6859 143.185 94.8271 142.541 95.1339 141.442C95.4408 140.342 94.7974 139.201 93.6959 138.894C92.5944 138.588 91.4532 139.231 91.1464 140.331Z" stroke="black" stroke-opacity="0.1"/>
<path d="M81.5689 137.282L97.8334 141.813C97.8334 141.813 85.765 186.432 78.3399 184.364C70.9148 182.295 81.5689 137.282 81.5689 137.282Z" fill="black" fill-opacity="0.1" stroke="black" stroke-opacity="0.1"/>
<path d="M88.7932 135.106C88.4863 136.205 89.1298 137.346 90.2312 137.653C91.3327 137.96 92.4739 137.316 92.7807 136.217C93.0876 135.117 92.4442 133.976 91.3427 133.669C90.2412 133.363 89.1 134.006 88.7932 135.106Z" stroke="black" stroke-opacity="0.1"/>
<path d="M88.3302 125.838C88.0234 126.937 88.6668 128.078 89.7683 128.385C90.8697 128.692 92.011 128.048 92.3178 126.948C92.6246 125.849 91.9812 124.708 90.8797 124.401C89.7783 124.094 88.6371 124.738 88.3302 125.838Z" stroke="black" stroke-opacity="0.1"/>
<path d="M92.2952 130.75C91.9884 131.85 92.6318 132.99 93.7332 133.297C94.8347 133.604 95.9759 132.961 96.2828 131.861C96.5896 130.761 95.9462 129.62 94.8447 129.314C93.7433 129.007 92.602 129.65 92.2952 130.75Z" stroke="black" stroke-opacity="0.1"/>
<path d="M72.1733 244.716L66.4701 228.276L52.3698 239.2L62.6252 242.057L72.1733 244.716Z" fill="black" fill-opacity="0.1"/>
<path d="M78.3006 185.876L72.2868 207.429L66.4701 228.276M66.4701 228.276L72.1733 244.716L62.6252 242.057L52.3698 239.2L66.4701 228.276Z" stroke="black" stroke-opacity="0.1" stroke-width="2"/>
<path d="M148 49C148 37.387 154.716 27.392 163 20" stroke="black" stroke-opacity="0.1" stroke-width="2" stroke-linecap="round"/>
<path d="M145.235 48C145.235 45.2555 144.956 42.5247 145.006 39.773C145.112 34.022 145.696 28.3422 146.813 22.7045C147.822 17.6156 149.526 12.933 151 8" stroke="black" stroke-opacity="0.1" stroke-width="2" stroke-linecap="round"/>
<path d="M142 48C142 46.7246 140.732 45.5045 140.122 44.4746C139.218 42.9494 138.065 41.4313 136.808 40.178C135.061 38.4352 133.949 36.9768 131.567 36.2731C128.825 35.4626 125.874 35 123 35" stroke="black" stroke-opacity="0.1" stroke-width="2" stroke-linecap="round"/>
<path d="M105.188 95.8709C102.767 107.556 90.0026 115.274 76.195 112.418C62.3874 109.562 53.7389 97.4151 56.16 85.7297C58.5811 74.0444 71.3455 66.3262 85.1531 69.1822C98.9607 72.0382 107.609 84.1855 105.188 95.8709Z" stroke="black" stroke-opacity="0.1" stroke-width="5"/>
<path d="M27.4326 220.077L33.296 215.952" stroke="black" stroke-opacity="0.1" stroke-width="2" stroke-linecap="round"/>
<path d="M21.5587 198.068L27.422 193.943" stroke="black" stroke-opacity="0.1" stroke-width="2" stroke-linecap="round"/>
<path d="M15.6848 211.273L21.5481 207.148" stroke="black" stroke-opacity="0.1" stroke-width="2" stroke-linecap="round"/>
<path d="M12.7478 224.479L18.6112 220.354" stroke="black" stroke-opacity="0.1" stroke-width="2" stroke-linecap="round"/>
<path d="M1 181.195L6.86339 177.07" stroke="black" stroke-opacity="0.1" stroke-width="2" stroke-linecap="round"/>
<path d="M24.4956 187.798L30.359 183.672" stroke="black" stroke-opacity="0.1" stroke-width="2" stroke-linecap="round"/>
<path d="M18.6217 165.789L24.4851 161.664" stroke="black" stroke-opacity="0.1" stroke-width="2" stroke-linecap="round"/>
<path d="M12.7478 178.994L18.6112 174.869" stroke="black" stroke-opacity="0.1" stroke-width="2" stroke-linecap="round"/>
<path d="M9.81091 192.199L15.6743 188.074" stroke="black" stroke-opacity="0.1" stroke-width="2" stroke-linecap="round"/>
<path d="M18.6217 50.6098L24.4851 46.4847" stroke="black" stroke-opacity="0.1" stroke-width="2" stroke-linecap="round"/>
<path d="M12.7478 28.601L18.6112 24.476" stroke="black" stroke-opacity="0.1" stroke-width="2" stroke-linecap="round"/>
<path d="M6.8739 41.8063L12.7373 37.6812" stroke="black" stroke-opacity="0.1" stroke-width="2" stroke-linecap="round"/>
<path d="M3.93695 55.0115L9.80034 50.8865" stroke="black" stroke-opacity="0.1" stroke-width="2" stroke-linecap="round"/>
<path d="M15.6848 18.3303L21.5481 14.2052" stroke="black" stroke-opacity="0.1" stroke-width="2" stroke-linecap="round"/>
<path d="M3.93695 9.52679L9.80034 5.40175" stroke="black" stroke-opacity="0.1" stroke-width="2" stroke-linecap="round"/>
<path d="M1 22.732L6.86339 18.607" stroke="black" stroke-opacity="0.1" stroke-width="2" stroke-linecap="round"/>
<path d="M2.46851 151.116L8.33189 146.991" stroke="black" stroke-opacity="0.1" stroke-width="2" stroke-linecap="round"/>
<path d="M5.39905 171.164L11.1143 166.836" stroke="black" stroke-opacity="0.1" stroke-width="2" stroke-linecap="round"/>
<path d="M25.9641 157.719L31.8275 153.594" stroke="black" stroke-opacity="0.1" stroke-width="2" stroke-linecap="round"/>
<path d="M20.0902 135.71L25.9536 131.585" stroke="black" stroke-opacity="0.1" stroke-width="2" stroke-linecap="round"/>
<path d="M14.2162 148.915L20.0796 144.79" stroke="black" stroke-opacity="0.1" stroke-width="2" stroke-linecap="round"/>
<path d="M11.2793 162.121L17.1427 157.996" stroke="black" stroke-opacity="0.1" stroke-width="2" stroke-linecap="round"/>
<path d="M28.9011 146.715L34.7645 142.59" stroke="black" stroke-opacity="0.1" stroke-width="2" stroke-linecap="round"/>
<path d="M31.8317 166.762L37.5469 162.434" stroke="black" stroke-opacity="0.1" stroke-width="2" stroke-linecap="round"/>
<path d="M42.8516 173.125L48.715 169" stroke="black" stroke-opacity="0.1" stroke-width="2" stroke-linecap="round"/>
<path d="M46.5228 131.308L52.3862 127.183" stroke="black" stroke-opacity="0.1" stroke-width="2" stroke-linecap="round"/>
<path d="M40.6489 144.514L46.5123 140.389" stroke="black" stroke-opacity="0.1" stroke-width="2" stroke-linecap="round"/>
<path d="M37.712 157.719L43.5754 153.594" stroke="black" stroke-opacity="0.1" stroke-width="2" stroke-linecap="round"/>
<path d="M28.8948 134.483L34.61 130.155" stroke="black" stroke-opacity="0.1" stroke-width="2" stroke-linecap="round"/>
<path d="M49.4598 121.038L55.3232 116.913" stroke="black" stroke-opacity="0.1" stroke-width="2" stroke-linecap="round"/>
<path d="M34.775 125.439L40.6384 121.314" stroke="black" stroke-opacity="0.1" stroke-width="2" stroke-linecap="round"/>
<path d="M18.6217 123.972L24.4851 119.847" stroke="black" stroke-opacity="0.1" stroke-width="2" stroke-linecap="round"/>
<path d="M8.34241 121.038L14.2058 116.913" stroke="black" stroke-opacity="0.1" stroke-width="2" stroke-linecap="round"/>
<path d="M5.40546 134.243L11.2688 130.118" stroke="black" stroke-opacity="0.1" stroke-width="2" stroke-linecap="round"/>
<path d="M43.5859 213.474L49.4493 209.349" stroke="black" stroke-opacity="0.1" stroke-width="2" stroke-linecap="round"/>
<path d="M35.5092 205.405L41.3726 201.279" stroke="black" stroke-opacity="0.1" stroke-width="2" stroke-linecap="round"/>
<path d="M36.2435 187.064L42.1069 182.939" stroke="black" stroke-opacity="0.1" stroke-width="2" stroke-linecap="round"/>
<path d="M55.3337 165.789L61.1971 161.664" stroke="black" stroke-opacity="0.1" stroke-width="2" stroke-linecap="round"/>
<path d="M49.4534 188.037L55.1687 183.71" stroke="black" stroke-opacity="0.1" stroke-width="2" stroke-linecap="round"/>
<path d="M55.3337 200.269L61.1971 196.144" stroke="black" stroke-opacity="0.1" stroke-width="2" stroke-linecap="round"/>
<path d="M55.3337 178.994L61.1971 174.869" stroke="black" stroke-opacity="0.1" stroke-width="2" stroke-linecap="round"/>
<path d="M81.7663 122.505L87.6297 118.38" stroke="black" stroke-opacity="0.1" stroke-width="2" stroke-linecap="round"/>
<path d="M105.262 129.108L111.125 124.983" stroke="black" stroke-opacity="0.1" stroke-width="2" stroke-linecap="round"/>
<path d="M93.5141 120.304L99.3775 116.179" stroke="black" stroke-opacity="0.1" stroke-width="2" stroke-linecap="round"/>
<path d="M61.2076 126.907L67.071 122.782" stroke="black" stroke-opacity="0.1" stroke-width="2" stroke-linecap="round"/>
<path d="M100.122 157.719L105.986 153.594" stroke="black" stroke-opacity="0.1" stroke-width="2" stroke-linecap="round"/>
<path d="M59.0049 152.584L64.8683 148.458" stroke="black" stroke-opacity="0.1" stroke-width="2" stroke-linecap="round"/>
<path d="M53.8652 137.177L59.7286 133.052" stroke="black" stroke-opacity="0.1" stroke-width="2" stroke-linecap="round"/>
<path d="M155.19 16.863L161.054 12.738" stroke="black" stroke-opacity="0.1" stroke-width="2" stroke-linecap="round"/>
<path d="M165.47 249.662L171.185 245.334" stroke="black" stroke-opacity="0.1" stroke-width="2" stroke-linecap="round"/>
<path d="M186.035 236.217L191.898 232.092" stroke="black" stroke-opacity="0.1" stroke-width="2" stroke-linecap="round"/>
<path d="M105.262 166.522L111.125 162.397" stroke="black" stroke-opacity="0.1" stroke-width="2" stroke-linecap="round"/>
<path d="M174.287 227.413L180.15 223.288" stroke="black" stroke-opacity="0.1" stroke-width="2" stroke-linecap="round"/>
<path d="M94.2484 173.859L100.112 169.734" stroke="black" stroke-opacity="0.1" stroke-width="2" stroke-linecap="round"/>
<path d="M188.972 225.212L194.835 221.087" stroke="black" stroke-opacity="0.1" stroke-width="2" stroke-linecap="round"/>
<path d="M186.035 192.933L191.898 188.808" stroke="black" stroke-opacity="0.1" stroke-width="2" stroke-linecap="round"/>
<path d="M188.965 212.98L194.681 208.653" stroke="black" stroke-opacity="0.1" stroke-width="2" stroke-linecap="round"/>
<path d="M180.161 208.339L186.024 204.214" stroke="black" stroke-opacity="0.1" stroke-width="2" stroke-linecap="round"/>
<path d="M174.287 186.33L180.15 182.205" stroke="black" stroke-opacity="0.1" stroke-width="2" stroke-linecap="round"/>
<path d="M164.001 195.867L169.864 191.742" stroke="black" stroke-opacity="0.1" stroke-width="2" stroke-linecap="round"/>
<path d="M165.476 212.741L171.339 208.616" stroke="black" stroke-opacity="0.1" stroke-width="2" stroke-linecap="round"/>
<path d="M112.604 176.06L118.468 171.934" stroke="black" stroke-opacity="0.1" stroke-width="2" stroke-linecap="round"/>
<path d="M102.325 150.383L108.188 146.258" stroke="black" stroke-opacity="0.1" stroke-width="2" stroke-linecap="round"/>
<path d="M165.476 167.256L171.339 163.131" stroke="black" stroke-opacity="0.1" stroke-width="2" stroke-linecap="round"/>
<path d="M154.456 185.597L160.319 181.472" stroke="black" stroke-opacity="0.1" stroke-width="2" stroke-linecap="round"/>
<path d="M187.503 162.854L193.367 158.729" stroke="black" stroke-opacity="0.1" stroke-width="2" stroke-linecap="round"/>
<path d="M102.325 184.129L108.188 180.004" stroke="black" stroke-opacity="0.1" stroke-width="2" stroke-linecap="round"/>
<path d="M119.947 250.156L125.81 246.031" stroke="black" stroke-opacity="0.1" stroke-width="2" stroke-linecap="round"/>
<path d="M102.331 225.946L108.195 221.821" stroke="black" stroke-opacity="0.1" stroke-width="2" stroke-linecap="round"/>
<path d="M97.9196 243.022L103.635 238.694" stroke="black" stroke-opacity="0.1" stroke-width="2" stroke-linecap="round"/>
<path d="M124.352 237.684L130.216 233.559" stroke="black" stroke-opacity="0.1" stroke-width="2" stroke-linecap="round"/>
<path d="M133.163 220.811L139.026 216.686" stroke="black" stroke-opacity="0.1" stroke-width="2" stroke-linecap="round"/>
<path d="M114.079 223.745L119.943 219.62" stroke="black" stroke-opacity="0.1" stroke-width="2" stroke-linecap="round"/>
<path d="M111.142 236.95L117.006 232.825" stroke="black" stroke-opacity="0.1" stroke-width="2" stroke-linecap="round"/>
<path d="M81.7663 247.955L87.6297 243.83" stroke="black" stroke-opacity="0.1" stroke-width="2" stroke-linecap="round"/>
<path d="M90.5836 219.343L96.447 215.218" stroke="black" stroke-opacity="0.1" stroke-width="2" stroke-linecap="round"/>
<path d="M84.7097 232.549L90.573 228.424" stroke="black" stroke-opacity="0.1" stroke-width="2" stroke-linecap="round"/>
<path d="M72.9554 234.749L78.8188 230.624" stroke="black" stroke-opacity="0.1" stroke-width="2" stroke-linecap="round"/>
<path d="M93.5206 209.073L99.384 204.948" stroke="black" stroke-opacity="0.1" stroke-width="2" stroke-linecap="round"/>
<path d="M87.6466 187.064L93.51 182.939" stroke="black" stroke-opacity="0.1" stroke-width="2" stroke-linecap="round"/>
<path d="M81.7727 200.269L87.6361 196.144" stroke="black" stroke-opacity="0.1" stroke-width="2" stroke-linecap="round"/>
<path d="M78.8358 213.474L84.6991 209.349" stroke="black" stroke-opacity="0.1" stroke-width="2" stroke-linecap="round"/>
<path d="M103.8 195.867L109.663 191.742" stroke="black" stroke-opacity="0.1" stroke-width="2" stroke-linecap="round"/>
<path d="M106.73 215.915L112.446 211.587" stroke="black" stroke-opacity="0.1" stroke-width="2" stroke-linecap="round"/>
<path d="M128.023 208.339L133.887 204.214" stroke="black" stroke-opacity="0.1" stroke-width="2" stroke-linecap="round"/>
<path d="M115.548 193.667L121.411 189.541" stroke="black" stroke-opacity="0.1" stroke-width="2" stroke-linecap="round"/>
<path d="M112.611 206.872L118.474 202.747" stroke="black" stroke-opacity="0.1" stroke-width="2" stroke-linecap="round"/>
<path d="M130.232 191.466L136.096 187.341" stroke="black" stroke-opacity="0.1" stroke-width="2" stroke-linecap="round"/>
<path d="M17.1532 7.32592L23.0166 3.20088" stroke="black" stroke-opacity="0.1" stroke-width="2" stroke-linecap="round"/>
<path d="M37.712 14.6622L43.5754 10.5371" stroke="black" stroke-opacity="0.1" stroke-width="2" stroke-linecap="round"/>
<path d="M50.9283 7.32592L56.7917 3.20088" stroke="black" stroke-opacity="0.1" stroke-width="2" stroke-linecap="round"/>
<path d="M30.3696 10.2604L36.233 6.13537" stroke="black" stroke-opacity="0.1" stroke-width="2" stroke-linecap="round"/>
<path d="M97.1854 8.05955L103.049 3.9345" stroke="black" stroke-opacity="0.1" stroke-width="2" stroke-linecap="round"/>
<path d="M83.2348 11.7277L89.0982 7.60262" stroke="black" stroke-opacity="0.1" stroke-width="2" stroke-linecap="round"/>
<path d="M108.933 10.994L114.797 6.869" stroke="black" stroke-opacity="0.1" stroke-width="2" stroke-linecap="round"/>
<path d="M69.2842 5.85867L75.1476 1.73363" stroke="black" stroke-opacity="0.1" stroke-width="2" stroke-linecap="round"/>
<path d="M81.7663 27.1338L87.6297 23.0087" stroke="black" stroke-opacity="0.1" stroke-width="2" stroke-linecap="round"/>
<path d="M52.3968 14.6622L58.2602 10.5371" stroke="black" stroke-opacity="0.1" stroke-width="2" stroke-linecap="round"/>
<path d="M66.3473 22.732L72.2107 18.607" stroke="black" stroke-opacity="0.1" stroke-width="2" stroke-linecap="round"/>
<path d="M19.356 240.618L25.2194 236.493" stroke="black" stroke-opacity="0.1" stroke-width="2" stroke-linecap="round"/>
<path d="M15.6848 251.623L21.5481 247.498" stroke="black" stroke-opacity="0.1" stroke-width="2" stroke-linecap="round"/>
<path d="M10.5451 237.684L16.4085 233.559" stroke="black" stroke-opacity="0.1" stroke-width="2" stroke-linecap="round"/>
<path d="M31.1038 240.087L36.8191 235.76" stroke="black" stroke-opacity="0.1" stroke-width="2" stroke-linecap="round"/>
<path d="M56.8022 223.745L62.6656 219.62" stroke="black" stroke-opacity="0.1" stroke-width="2" stroke-linecap="round"/>
<path d="M42.1174 228.147L47.9808 224.022" stroke="black" stroke-opacity="0.1" stroke-width="2" stroke-linecap="round"/>
<path d="M144.177 154.784L150.04 150.659" stroke="black" stroke-opacity="0.1" stroke-width="2" stroke-linecap="round"/>
<path d="M139.037 141.579L144.9 137.454" stroke="black" stroke-opacity="0.1" stroke-width="2" stroke-linecap="round"/>
<path d="M152.253 163.588L158.117 159.463" stroke="black" stroke-opacity="0.1" stroke-width="2" stroke-linecap="round"/>
<path d="M176.483 55.7451L182.347 51.6201" stroke="black" stroke-opacity="0.1" stroke-width="2" stroke-linecap="round"/>
<path d="M176.483 25.6665L182.347 21.5415" stroke="black" stroke-opacity="0.1" stroke-width="2" stroke-linecap="round"/>
<path d="M166.938 49.8761L172.801 45.7511" stroke="black" stroke-opacity="0.1" stroke-width="2" stroke-linecap="round"/>
<path d="M170.609 70.6202L176.325 66.2926" stroke="black" stroke-opacity="0.1" stroke-width="2" stroke-linecap="round"/>
<path d="M189.699 44.7408L195.563 40.6157" stroke="black" stroke-opacity="0.1" stroke-width="2" stroke-linecap="round"/>
<path d="M170.609 34.6726L176.325 30.345" stroke="black" stroke-opacity="0.1" stroke-width="2" stroke-linecap="round"/>
<path d="M186.763 12.4613L192.626 8.33624" stroke="black" stroke-opacity="0.1" stroke-width="2" stroke-linecap="round"/>
<path d="M172.078 16.863L177.941 12.738" stroke="black" stroke-opacity="0.1" stroke-width="2" stroke-linecap="round"/>
<path d="M187.497 57.946L193.36 53.821" stroke="black" stroke-opacity="0.1" stroke-width="2" stroke-linecap="round"/>
<path d="M178.686 97.5617L184.549 93.4367" stroke="black" stroke-opacity="0.1" stroke-width="2" stroke-linecap="round"/>
<path d="M188.965 84.3565L194.829 80.2314" stroke="black" stroke-opacity="0.1" stroke-width="2" stroke-linecap="round"/>
<path d="M174.281 88.7582L180.144 84.6332" stroke="black" stroke-opacity="0.1" stroke-width="2" stroke-linecap="round"/>
<path d="M189.699 129.841L195.563 125.716" stroke="black" stroke-opacity="0.1" stroke-width="2" stroke-linecap="round"/>
<path d="M92.0457 60.1469L97.909 56.0218" stroke="black" stroke-opacity="0.1" stroke-width="2" stroke-linecap="round"/>
<path d="M100.122 33.7364L105.986 29.6114" stroke="black" stroke-opacity="0.1" stroke-width="2" stroke-linecap="round"/>
<path d="M125.821 51.3434L131.684 47.2183" stroke="black" stroke-opacity="0.1" stroke-width="2" stroke-linecap="round"/>
<path d="M119.947 29.3347L125.81 25.2096" stroke="black" stroke-opacity="0.1" stroke-width="2" stroke-linecap="round"/>
<path d="M114.073 42.5399L119.936 38.4148" stroke="black" stroke-opacity="0.1" stroke-width="2" stroke-linecap="round"/>
<path d="M111.136 55.7451L116.999 51.6201" stroke="black" stroke-opacity="0.1" stroke-width="2" stroke-linecap="round"/>
<path d="M92.0457 45.6769L97.7609 41.3493" stroke="black" stroke-opacity="0.1" stroke-width="2" stroke-linecap="round"/>
<path d="M122.884 9.52679L128.747 5.40175" stroke="black" stroke-opacity="0.1" stroke-width="2" stroke-linecap="round"/>
<path d="M114.073 19.7975L119.936 15.6725" stroke="black" stroke-opacity="0.1" stroke-width="2" stroke-linecap="round"/>
<path d="M94.2484 23.4657L100.112 19.3406" stroke="black" stroke-opacity="0.1" stroke-width="2" stroke-linecap="round"/>
<path d="M119.947 78.4875L125.81 74.3624" stroke="black" stroke-opacity="0.1" stroke-width="2" stroke-linecap="round"/>
<path d="M105.262 71.1512L111.125 67.0262" stroke="black" stroke-opacity="0.1" stroke-width="2" stroke-linecap="round"/>
<path d="M131.695 18.5328L137.41 14.2052" stroke="black" stroke-opacity="0.1" stroke-width="2" stroke-linecap="round"/>
<path d="M109.667 113.701L115.531 109.576" stroke="black" stroke-opacity="0.1" stroke-width="2" stroke-linecap="round"/>
<path d="M111.87 91.6927L117.734 87.5677" stroke="black" stroke-opacity="0.1" stroke-width="2" stroke-linecap="round"/>
<path d="M135.366 112.968L141.229 108.843" stroke="black" stroke-opacity="0.1" stroke-width="2" stroke-linecap="round"/>
<path d="M133.897 84.3565L139.761 80.2314" stroke="black" stroke-opacity="0.1" stroke-width="2" stroke-linecap="round"/>
<path d="M121.415 97.5617L127.279 93.4367" stroke="black" stroke-opacity="0.1" stroke-width="2" stroke-linecap="round"/>
<path d="M125.086 110.767L130.95 106.642" stroke="black" stroke-opacity="0.1" stroke-width="2" stroke-linecap="round"/>
<path d="M130.96 66.7495L136.824 62.6245" stroke="black" stroke-opacity="0.1" stroke-width="2" stroke-linecap="round"/>
<path d="M131.695 126.907L137.558 122.782" stroke="black" stroke-opacity="0.1" stroke-width="2" stroke-linecap="round"/>
<path d="M122.884 123.972L128.747 119.847" stroke="black" stroke-opacity="0.1" stroke-width="2" stroke-linecap="round"/>
<path d="M143.442 126.376L149.158 122.048" stroke="black" stroke-opacity="0.1" stroke-width="2" stroke-linecap="round"/>
</svg>
